<mxfile host="app.diagrams.net" agent="Mozilla/5.0 (Windows NT 10.0; Win64; x64; rv:129.0) Gecko/20100101 Firefox/129.0" version="24.7.7">
  <diagram name="Page-1" id="BbjhUkv74CTpEbGeUPE7">
    <mxGraphModel dx="797" dy="419" grid="1" gridSize="10" guides="1" tooltips="1" connect="1" arrows="1" fold="1" page="1" pageScale="1" pageWidth="827" pageHeight="1169" math="0" shadow="0">
      <root>
        <mxCell id="0" />
        <mxCell id="1" style="" parent="0" />
        <mxCell id="SLboqQbTkP1J-5Jf3Kvc-10" value="" style="group" parent="1" vertex="1" connectable="0">
          <mxGeometry x="20" y="20" width="330" height="270" as="geometry" />
        </mxCell>
        <mxCell id="SLboqQbTkP1J-5Jf3Kvc-7" value="" style="rounded=1;whiteSpace=wrap;html=1;arcSize=29;fillColor=#1e293b;strokeColor=none;" parent="SLboqQbTkP1J-5Jf3Kvc-10" vertex="1">
          <mxGeometry width="130" height="80" as="geometry" />
        </mxCell>
        <mxCell id="SLboqQbTkP1J-5Jf3Kvc-8" value="" style="rounded=1;whiteSpace=wrap;html=1;arcSize=18;fillColor=#1e293b;strokeColor=none;" parent="SLboqQbTkP1J-5Jf3Kvc-10" vertex="1">
          <mxGeometry y="40" width="310" height="140" as="geometry" />
        </mxCell>
        <mxCell id="SLboqQbTkP1J-5Jf3Kvc-9" value="" style="triangle;whiteSpace=wrap;html=1;rotation=15;fillColor=#1e293b;strokeColor=none;" parent="SLboqQbTkP1J-5Jf3Kvc-10" vertex="1">
          <mxGeometry x="109" y="10" width="60" height="80" as="geometry" />
        </mxCell>
        <mxCell id="SLboqQbTkP1J-5Jf3Kvc-6" value="" style="rounded=1;whiteSpace=wrap;html=1;arcSize=32;fillColor=#3D4E66;strokeColor=none;" parent="SLboqQbTkP1J-5Jf3Kvc-10" vertex="1">
          <mxGeometry y="70" width="310" height="140" as="geometry" />
        </mxCell>
        <mxCell id="SLboqQbTkP1J-5Jf3Kvc-32" value="" style="rounded=1;whiteSpace=wrap;html=1;arcSize=10;fillColor=#3D4E66;strokeColor=none;" parent="SLboqQbTkP1J-5Jf3Kvc-10" vertex="1">
          <mxGeometry y="100" width="310" height="170" as="geometry" />
        </mxCell>
        <mxCell id="X5IGt5IoZtbFOw5Dazlh-31" value="tree logo 2" parent="0" />
        <mxCell id="X5IGt5IoZtbFOw5Dazlh-49" value="" style="group" vertex="1" connectable="0" parent="X5IGt5IoZtbFOw5Dazlh-31">
          <mxGeometry x="110" y="110" width="139" height="148" as="geometry" />
        </mxCell>
        <mxCell id="X5IGt5IoZtbFOw5Dazlh-40" value="" style="endArrow=none;html=1;rounded=0;strokeWidth=20;strokeColor=#f8fafc;" edge="1" parent="X5IGt5IoZtbFOw5Dazlh-49">
          <mxGeometry width="50" height="50" relative="1" as="geometry">
            <mxPoint x="69.78999999999999" y="69" as="sourcePoint" />
            <mxPoint x="69.78999999999999" as="targetPoint" />
          </mxGeometry>
        </mxCell>
        <mxCell id="X5IGt5IoZtbFOw5Dazlh-41" value="" style="endArrow=none;html=1;rounded=0;strokeWidth=20;strokeColor=#f8fafc;" edge="1" parent="X5IGt5IoZtbFOw5Dazlh-49">
          <mxGeometry width="50" height="50" relative="1" as="geometry">
            <mxPoint x="139" y="70" as="sourcePoint" />
            <mxPoint x="69" y="70" as="targetPoint" />
          </mxGeometry>
        </mxCell>
        <mxCell id="X5IGt5IoZtbFOw5Dazlh-45" value="" style="endArrow=none;html=1;rounded=0;strokeWidth=20;strokeColor=#f8fafc;" edge="1" parent="X5IGt5IoZtbFOw5Dazlh-49">
          <mxGeometry width="50" height="50" relative="1" as="geometry">
            <mxPoint x="70" y="70" as="sourcePoint" />
            <mxPoint y="70" as="targetPoint" />
          </mxGeometry>
        </mxCell>
        <mxCell id="X5IGt5IoZtbFOw5Dazlh-46" value="" style="endArrow=none;html=1;rounded=0;strokeWidth=20;strokeColor=#f8fafc;" edge="1" parent="X5IGt5IoZtbFOw5Dazlh-49">
          <mxGeometry width="50" height="50" relative="1" as="geometry">
            <mxPoint x="129" y="148" as="sourcePoint" />
            <mxPoint x="129" y="79" as="targetPoint" />
          </mxGeometry>
        </mxCell>
        <mxCell id="X5IGt5IoZtbFOw5Dazlh-47" value="" style="endArrow=none;html=1;rounded=0;strokeWidth=20;strokeColor=#f8fafc;" edge="1" parent="X5IGt5IoZtbFOw5Dazlh-49">
          <mxGeometry width="50" height="50" relative="1" as="geometry">
            <mxPoint x="10" y="148" as="sourcePoint" />
            <mxPoint x="10" y="79" as="targetPoint" />
          </mxGeometry>
        </mxCell>
        <mxCell id="X5IGt5IoZtbFOw5Dazlh-48" value="" style="endArrow=none;html=1;rounded=0;strokeWidth=20;strokeColor=#f8fafc;" edge="1" parent="X5IGt5IoZtbFOw5Dazlh-49">
          <mxGeometry width="50" height="50" relative="1" as="geometry">
            <mxPoint x="70" y="148" as="sourcePoint" />
            <mxPoint x="70" y="79" as="targetPoint" />
          </mxGeometry>
        </mxCell>
      </root>
    </mxGraphModel>
  </diagram>
</mxfile>
